<svg xmlns="http://www.w3.org/2000/svg" width="512" height="512" viewBox="0 0 24 24">
  <rect width="24" height="24" rx="5.4" fill="#2A3042"/>
  <g transform="translate(2.4 2.4) scale(0.8)">
    <path fill="#B9C5EE" d="M9.4,10.5l4.77,-8.26C13.47,2.09 12.75,2 12,2c-2.4,0 -4.6,0.85 -6.32,2.25l3.66,6.35 0.06,-0.1zM21.54,9c-0.92,-2.92 -3.15,-5.26 -6,-6.34L11.88,9h9.66zM21.8,10h-7.49l0.29,0.5 4.76,8.25C20.85,16.94 22,14.61 22,12c0,-0.69 -0.07,-1.35 -0.2,-2zM8.54,12l-3.9,-6.75C3.01,7.03 2,9.39 2,12c0,0.69 0.07,1.35 0.2,2h7.49l-1.15,-2zM2.46,15c0.92,2.92 3.15,5.26 6,6.34L12.12,15H2.46zM13.73,15l-3.9,6.76c0.7,0.15 1.42,0.24 2.17,0.24 2.4,0 4.6,-0.85 6.32,-2.25l-3.66,-6.35 -0.93,1.6z"/>
  </g>
</svg>
